<?xml version="1.0" encoding="iso-8859-1"?>
<!-- Uploaded to: SVG Repo, www.svgrepo.com, Generator: SVG Repo Mixer Tools -->
<svg fill="#000000" height="800px" width="800px" version="1.1" id="Layer_1" xmlns="http://www.w3.org/2000/svg" xmlns:xlink="http://www.w3.org/1999/xlink" 
	 viewBox="0 0 512 512" xml:space="preserve">
<g>
	<g>
		<path d="M256,0C114.844,0,0,114.839,0,256s114.844,256,256,256s256-114.839,256-256S397.156,0,256,0z M116.839,166.937
			c0-9.225,7.48-16.699,16.699-16.699h38.965v-38.965c0-9.225,7.48-16.699,16.699-16.699s16.699,7.475,16.699,16.699v38.965h38.965
			c9.219,0,16.699,7.475,16.699,16.699c0,9.225-7.48,16.699-16.699,16.699h-38.965v38.965c0,9.225-7.48,16.699-16.699,16.699
			s-16.699-7.475-16.699-16.699v-38.965h-38.965C124.319,183.636,116.839,176.162,116.839,166.937z M173.341,362.273
			c-3.262,3.262-7.535,4.893-11.806,4.893c-4.272,0-8.546-1.631-11.806-4.893c-6.523-6.517-6.523-17.096,0-23.614L338.66,149.727
			c6.522-6.523,17.09-6.523,23.613,0c6.523,6.517,6.523,17.096,0,23.614L173.341,362.273z M389.594,361.762H278.266
			c-9.219,0-16.699-7.475-16.699-16.699s7.48-16.699,16.699-16.699h111.329c9.219,0,16.699,7.475,16.699,16.699
			S398.813,361.762,389.594,361.762z"/>
	</g>
</g>
</svg>